<svg xmlns="http://www.w3.org/2000/svg" version="1.1" xmlns:xlink="http://www.w3.org/1999/xlink" width="1000" height="1000"><g clip-path="url(#SvgjsClipPath1029)"><rect width="1000" height="1000" fill="#ffffff"></rect><g transform="matrix(0.87890625,0,0,0.87890625,50,50)"><svg xmlns="http://www.w3.org/2000/svg" version="1.1" xmlns:xlink="http://www.w3.org/1999/xlink" width="1024" height="1024"><svg width="1024" height="1024" viewBox="0 0 1024 1024" fill="none" xmlns="http://www.w3.org/2000/svg">
<rect width="1024" height="1024" fill="white"></rect>
<path fill-rule="evenodd" clip-rule="evenodd" d="M477.71 91.6205C395.196 104.976 326.239 146.882 283.679 209.535C268.059 232.531 203.694 345.244 197.694 360.108C187.812 384.597 182.362 422.156 184.191 453.201C185.061 467.952 186.728 480.975 187.901 482.148C189.07 483.319 219.195 433.21 254.848 370.798C290.5 308.386 325.737 249.131 333.155 239.117C360.703 201.932 389.683 178.565 426.978 163.466C459.966 150.11 466.78 149.475 579.018 149.274L684.379 149.088L677.755 143.573C654.762 124.423 607.112 103.227 568.912 95.1595C545.587 90.2308 497.753 88.3762 477.71 91.6205ZM471.243 168.475C441.996 172.747 403.604 191.129 379.103 212.595L368.297 222.063L516.883 222.204C677.625 222.358 680.113 222.547 717.665 237.582C753.761 252.032 787.281 276.832 804.423 301.768C816.528 319.376 891.329 449.337 897.813 464.023C903.175 476.176 903.835 476.76 905.434 470.782C908.665 458.7 907.298 412.323 903.051 389.918C892.326 333.337 866.361 283.762 826.416 243.586C783.27 200.194 728.696 174.823 664.507 168.324C631.672 164.999 494.314 165.107 471.243 168.475ZM246.649 205.593C215.373 225.943 198.013 241.867 177.716 268.822C120.397 344.947 102.985 449.564 132.905 538.061C141.274 562.823 217.423 695.237 236.558 718.309C252.724 737.799 282.99 759.482 306.118 768.142C314.425 771.253 322.265 773.798 323.538 773.798C324.813 773.798 293.842 718.342 254.716 650.56C209.502 572.229 180.914 519.769 176.273 506.594C169.916 488.564 168.803 480.55 167.72 445.02C165.748 380.496 169.63 369.117 228.516 266.875C245.644 237.136 263.188 207.634 267.505 201.313C271.822 194.992 274.348 189.823 273.119 189.823C271.889 189.823 259.978 196.92 246.649 205.593ZM696.536 251.021C696.536 252.168 706.14 269.587 717.881 289.731C773.463 385.1 832.662 489.053 836.374 497.799C855.833 543.671 857.511 602.063 840.886 654.864C834.988 673.592 777.513 777.042 751.607 815.554C746.661 822.906 743.141 829.448 743.784 830.094C745.686 831.998 785.128 806.473 802.005 792.417C833.864 765.884 864.103 723.07 881.039 680.524C897.159 640.029 900.514 621.318 900.428 572.38C900.35 527.201 896.13 503.555 882.357 471.096C876.789 457.97 811.56 344.736 798.201 325.002C786.955 308.391 768.287 288.717 753.453 277.844C733.764 263.414 696.536 245.868 696.536 251.021ZM805.544 578.152C691.573 778.74 682.458 793.298 654.616 819.185C620.871 850.558 584.195 867.899 538.792 873.944C514.735 877.147 353.968 876.088 338.58 872.624L330.475 870.799L340.341 879.805C352.615 891.014 392.236 912.018 415.574 919.688C485.993 942.839 563.693 937.711 627.557 905.7C672.109 883.371 713.494 845.318 740.139 802.185C771.899 750.771 816.283 672.543 821.978 657.941C831.795 632.77 835.685 609.479 835.369 577.788C834.878 528.217 833.908 528.228 805.544 578.152ZM113 573.378C113 625.252 122.161 665.3 144 708.911C172.259 765.338 230.615 819.602 285.9 840.86C325.305 856.011 327.836 856.257 443.941 856.257H552.003L573.959 848.711C597.748 840.533 620.452 827.904 639.649 812.164L651.823 802.185L493.852 800.779L335.878 799.376L316.306 792.16C284.057 780.27 264.09 768.139 241.816 746.902C230.199 735.828 214.244 716.971 206.358 704.997C183.216 669.858 127.429 570.904 122.069 555.483C119.354 547.678 116.204 541.289 115.067 541.289C113.929 541.289 113 555.729 113 573.378ZM869.298 802.399C850.19 810.347 844.382 834.482 857.954 849.549C867.375 860.007 881.285 862.637 894.352 856.43C917.505 845.437 916.227 811.975 892.275 801.958C881.301 797.37 881.393 797.367 869.298 802.399ZM898.337 812.362C905.847 819.158 908.56 831.122 904.421 839.2C895.6 856.416 876.835 860.023 863.825 847.003C849.955 833.12 854.842 811.523 872.934 806.754C883.719 803.91 890.702 805.451 898.337 812.362ZM869.436 829.221C869.436 839.135 870.614 846.794 872.137 846.794C873.623 846.794 874.839 844.361 874.839 841.387C874.839 834.144 881.306 834.523 886.372 842.063C888.62 845.41 891.372 847.262 892.488 846.183C893.607 845.105 892.826 842.169 890.759 839.662C887.836 836.121 887.75 834.847 890.373 833.963C892.231 833.339 893.75 828.799 893.75 823.879C893.75 814.159 890.376 811.648 877.319 811.648H869.436V829.221ZM889.697 823.814C889.697 827.702 887.612 829.462 882.268 830.075C875.828 830.819 874.839 829.983 874.839 823.814C874.839 817.644 875.828 816.809 882.268 817.552C887.612 818.166 889.697 819.926 889.697 823.814Z" fill="black"></path>
</svg></svg></g></g><defs><clipPath id="SvgjsClipPath1029"><rect width="1000" height="1000" x="0" y="0" rx="350" ry="350"></rect></clipPath></defs></svg>